solid OpenSCAD_Model
  facet normal 0 0 -1
    outer loop
      vertex -0.894974 1.11311 -0.25
      vertex -0.535873 0.910477 -0.25
      vertex -0.775299 0.94841 -0.25
    endloop
  endfacet
  facet normal 0 0 -1
    outer loop
      vertex -0.535873 0.910477 -0.25
      vertex -0.894974 1.11311 -0.25
      vertex 0 1.76335 -0.25
    endloop
  endfacet
  facet normal 0 0 -1
    outer loop
      vertex 1.94092 -0.893967 -0.25
      vertex 1.64227 -0.801926 -0.25
      vertex 1.79398 -0.691711 -0.25
    endloop
  endfacet
  facet normal -0 0 -1
    outer loop
      vertex 1.64227 -0.801926 -0.25
      vertex 1.49059 -0.912125 -0.25
      vertex 1.53207 -0.650238 -0.25
    endloop
  endfacet
  facet normal -0 0 -1
    outer loop
      vertex 1.94092 -0.893967 -0.25
      vertex 1.49059 -0.912125 -0.25
      vertex 1.64227 -0.801926 -0.25
    endloop
  endfacet
  facet normal 0 0 -1
    outer loop
      vertex 1.48584 -1.22459 -0.25
      vertex 1.49059 -0.912125 -0.25
      vertex 1.94092 -0.893967 -0.25
    endloop
  endfacet
  facet normal 0 0 -1
    outer loop
      vertex 1.49059 -0.912125 -0.25
      vertex 1.48584 -1.22459 -0.25
      vertex 1.3389 -1.02234 -0.25
    endloop
  endfacet
  facet normal 0 0 -1
    outer loop
      vertex 1.42661 0.186081 -0.25
      vertex 2.42705 0 -0.25
      vertex 1.53207 -0.650238 -0.25
    endloop
  endfacet
  facet normal 0 0 -1
    outer loop
      vertex 1.38039 -0.760452 -0.25
      vertex 1.53207 -0.650238 -0.25
      vertex 1.49059 -0.912125 -0.25
    endloop
  endfacet
  facet normal 0 0 -1
    outer loop
      vertex 2.42705 0 -0.25
      vertex 1.42661 0.186081 -0.25
      vertex 1.57355 0.388336 -0.25
    endloop
  endfacet
  facet normal -0 0 -1
    outer loop
      vertex 1.53207 -0.650238 -0.25
      vertex 1.38039 -0.760452 -0.25
      vertex 1.42661 0.186081 -0.25
    endloop
  endfacet
  facet normal 0 0 -1
    outer loop
      vertex 1.38039 -0.760452 -0.25
      vertex 0.971527 0.516708 -0.25
      vertex 1.42661 0.186081 -0.25
    endloop
  endfacet
  facet normal 0 0 -1
    outer loop
      vertex -0.894974 -1.11311 -0.25
      vertex 1.38039 -0.760452 -0.25
      vertex 0 -1.76335 -0.25
    endloop
  endfacet
  facet normal 0 0 -1
    outer loop
      vertex 1.57355 0.388336 -0.25
      vertex 1.53207 0.650238 -0.25
      vertex 2.42705 0 -0.25
    endloop
  endfacet
  facet normal 0 -0 -1
    outer loop
      vertex 1.53207 0.650238 -0.25
      vertex 1.57355 0.388336 -0.25
      vertex 1.42186 0.498535 -0.25
    endloop
  endfacet
  facet normal 0 0 -1
    outer loop
      vertex 1.11848 0.718964 -0.25
      vertex 1.38039 0.760452 -0.25
      vertex 1.27017 0.608749 -0.25
    endloop
  endfacet
  facet normal 0 0 -1
    outer loop
      vertex 1.11848 0.718964 -0.25
      vertex 0 1.76335 -0.25
      vertex 1.38039 0.760452 -0.25
    endloop
  endfacet
  facet normal 0 0 -1
    outer loop
      vertex 0.971527 0.516708 -0.25
      vertex 0 1.76335 -0.25
      vertex 1.11848 0.718964 -0.25
    endloop
  endfacet
  facet normal -0 0 -1
    outer loop
      vertex 1.38039 -0.760452 -0.25
      vertex -0.894974 -1.11311 -0.25
      vertex 0.971527 0.516708 -0.25
    endloop
  endfacet
  facet normal 0 -0 -1
    outer loop
      vertex -0.535873 0.910477 -0.25
      vertex 0.971527 0.516708 -0.25
      vertex -0.594543 0.540115 -0.25
    endloop
  endfacet
  facet normal 0 0 -1
    outer loop
      vertex 0.971527 0.516708 -0.25
      vertex -0.535873 0.910477 -0.25
      vertex 0 1.76335 -0.25
    endloop
  endfacet
  facet normal -0 0 -1
    outer loop
      vertex 0.971527 0.516708 -0.25
      vertex -0.894974 -1.11311 -0.25
      vertex -0.594543 0.540115 -0.25
    endloop
  endfacet
  facet normal 0 0 -1
    outer loop
      vertex -1.04666 -1.0029 -0.25
      vertex -0.594543 0.540115 -0.25
      vertex -0.894974 -1.11311 -0.25
    endloop
  endfacet
  facet normal 0 0 -1
    outer loop
      vertex -1.04666 -1.0029 -0.25
      vertex -0.894974 -1.11311 -0.25
      vertex -1.01463 -1.27782 -0.25
    endloop
  endfacet
  facet normal -0 0 -1
    outer loop
      vertex -0.594543 0.540115 -0.25
      vertex -1.04666 -1.0029 -0.25
      vertex -0.964905 0.59877 -0.25
    endloop
  endfacet
  facet normal 0 0 -1
    outer loop
      vertex -0.964905 0.59877 -0.25
      vertex -1.04666 1.0029 -0.25
      vertex -0.927002 0.838196 -0.25
    endloop
  endfacet
  facet normal 0 0 -1
    outer loop
      vertex -2.42705 0 -0.25
      vertex -0.964905 0.59877 -0.25
      vertex -1.04666 -1.0029 -0.25
    endloop
  endfacet
  facet normal -0 0 -1
    outer loop
      vertex -0.964905 0.59877 -0.25
      vertex -2.42705 0 -0.25
      vertex -1.04666 1.0029 -0.25
    endloop
  endfacet
  facet normal 0 0 -1
    outer loop
      vertex -1.01463 -1.27782 -0.25
      vertex -1.16632 -1.1676 -0.25
      vertex -1.04666 -1.0029 -0.25
    endloop
  endfacet
  facet normal 0 0 -1
    outer loop
      vertex -1.34709 -1.5759 -0.25
      vertex -1.01463 -1.27782 -0.25
      vertex -0.976715 -1.51724 -0.25
    endloop
  endfacet
  facet normal -0 0 -1
    outer loop
      vertex -1.01463 -1.27782 -0.25
      vertex -1.34709 -1.5759 -0.25
      vertex -1.16632 -1.1676 -0.25
    endloop
  endfacet
  facet normal 0 0 -1
    outer loop
      vertex -1.16632 -1.1676 -0.25
      vertex -1.34709 -1.5759 -0.25
      vertex -1.40575 -1.20554 -0.25
    endloop
  endfacet
  facet normal 0 -0 1
    outer loop
      vertex 1.38038 0.760446 0
      vertex 1.38039 0.760452 0
      vertex 0 1.76335 0
    endloop
  endfacet
  facet normal 0 0 -1
    outer loop
      vertex -0.594543 0.540115 0
      vertex -0.775299 0.94841 0
      vertex -0.535873 0.910477 0
    endloop
  endfacet
  facet normal 0 0 -1
    outer loop
      vertex -0.927002 0.838196 0
      vertex -0.775299 0.94841 0
      vertex -0.594543 0.540115 0
    endloop
  endfacet
  facet normal -0 0 -1
    outer loop
      vertex -0.775299 0.94841 0
      vertex -0.927002 0.838196 0
      vertex -0.894974 1.11311 0
    endloop
  endfacet
  facet normal 0 -0 -1
    outer loop
      vertex -0.927002 0.838196 0
      vertex -0.594543 0.540115 0
      vertex -0.964905 0.59877 0
    endloop
  endfacet
  facet normal 0 0 -1
    outer loop
      vertex -1.04666 1.0029 0
      vertex -0.894974 1.11311 0
      vertex -0.927002 0.838196 0
    endloop
  endfacet
  facet normal -0 0 -1
    outer loop
      vertex -0.894974 1.11311 0
      vertex -2.42705 0 0
      vertex 0 1.76335 0
    endloop
  endfacet
  facet normal 0 0 -1
    outer loop
      vertex -2.42705 0 0
      vertex -0.894974 1.11311 0
      vertex -1.04666 1.0029 0
    endloop
  endfacet
  facet normal 0 0 1
    outer loop
      vertex 1.53207 -0.650238 0
      vertex 1.38039 -0.760452 0
      vertex 1.49059 -0.912125 0
    endloop
  endfacet
  facet normal 0 0 1
    outer loop
      vertex 1.53207 -0.650238 0
      vertex 0 -1.76335 0
      vertex 1.38039 -0.760452 0
    endloop
  endfacet
  facet normal 0 0 1
    outer loop
      vertex 0 -1.76335 0
      vertex 1.53207 -0.650238 0
      vertex 2.42705 0 0
    endloop
  endfacet
  facet normal -0 0 1
    outer loop
      vertex 1.64227 -0.801926 0
      vertex 1.94092 -0.893967 0
      vertex 1.79398 -0.691711 0
    endloop
  endfacet
  facet normal 0 0 1
    outer loop
      vertex 1.49059 -0.912125 0
      vertex 1.64227 -0.801926 0
      vertex 1.53207 -0.650238 0
    endloop
  endfacet
  facet normal 0 0 1
    outer loop
      vertex 1.49059 -0.912125 0
      vertex 1.94092 -0.893967 0
      vertex 1.64227 -0.801926 0
    endloop
  endfacet
  facet normal -0 0 1
    outer loop
      vertex 1.49059 -0.912125 0
      vertex 1.48584 -1.22459 0
      vertex 1.94092 -0.893967 0
    endloop
  endfacet
  facet normal 0 -0 1
    outer loop
      vertex 1.48584 -1.22459 0
      vertex 1.49059 -0.912125 0
      vertex 1.3389 -1.02234 0
    endloop
  endfacet
  facet normal 0 0 1
    outer loop
      vertex 2.42705 0 0
      vertex 1.53207 0.650238 0
      vertex 1.53207 0.650237 0
    endloop
  endfacet
  facet normal 0 0 -1
    outer loop
      vertex 0 -1.76335 0
      vertex -0.894975 -1.11311 0
      vertex -0.894974 -1.11311 0
    endloop
  endfacet
  facet normal 0 0 -1
    outer loop
      vertex -1.04667 -1.00291 0
      vertex -2.42705 0 0
      vertex -1.04666 -1.0029 0
    endloop
  endfacet
  facet normal 0 0 -1
    outer loop
      vertex 1.42661 0.186081 0
      vertex 1.42186 0.498535 0
      vertex 1.57355 0.388336 0
    endloop
  endfacet
  facet normal 0 0 -1
    outer loop
      vertex 1.27017 0.608749 0
      vertex 1.42186 0.498535 0
      vertex 1.42661 0.186081 0
    endloop
  endfacet
  facet normal 0 0 -1
    outer loop
      vertex 1.42186 0.498535 0
      vertex 1.27017 0.608749 0
      vertex 1.38038 0.760446 0
    endloop
  endfacet
  facet normal 0 0 -1
    outer loop
      vertex 0.971527 0.516708 0
      vertex 1.27017 0.608749 0
      vertex 1.42661 0.186081 0
    endloop
  endfacet
  facet normal -0 0 -1
    outer loop
      vertex 1.27017 0.608749 0
      vertex 0.971527 0.516708 0
      vertex 1.11848 0.718964 0
    endloop
  endfacet
  facet normal -0 0 -1
    outer loop
      vertex 1.53207 0.650237 0
      vertex 1.42186 0.498535 0
      vertex 1.38038 0.760446 0
    endloop
  endfacet
  facet normal 0 0 1
    outer loop
      vertex -0.894975 -1.11311 0
      vertex -1.04667 -1.00291 0
      vertex -1.01463 -1.27782 0
    endloop
  endfacet
  facet normal -0 0 1
    outer loop
      vertex -1.16632 -1.1676 0
      vertex -1.01463 -1.27782 0
      vertex -1.04667 -1.00291 0
    endloop
  endfacet
  facet normal 0 0 1
    outer loop
      vertex -1.34709 -1.5759 0
      vertex -1.01463 -1.27782 0
      vertex -1.16632 -1.1676 0
    endloop
  endfacet
  facet normal 0 0 1
    outer loop
      vertex -1.01463 -1.27782 0
      vertex -1.34709 -1.5759 0
      vertex -0.976715 -1.51724 0
    endloop
  endfacet
  facet normal 0 -0 1
    outer loop
      vertex -1.34709 -1.5759 0
      vertex -1.16632 -1.1676 0
      vertex -1.40575 -1.20554 0
    endloop
  endfacet
  facet normal -0.809011 -0.587794 0
    outer loop
      vertex 1.49059 -0.912125 -0.25
      vertex 1.38039 -0.760452 0
      vertex 1.38039 -0.760452 -0.25
    endloop
  endfacet
  facet normal -0.809011 -0.587794 0
    outer loop
      vertex 1.38039 -0.760452 0
      vertex 1.49059 -0.912125 -0.25
      vertex 1.49059 -0.912125 0
    endloop
  endfacet
  facet normal -0.587809 0.809 0
    outer loop
      vertex 1.49059 -0.912125 -0.25
      vertex 1.3389 -1.02234 0
      vertex 1.49059 -0.912125 0
    endloop
  endfacet
  facet normal -0.587809 0.809 0
    outer loop
      vertex 1.3389 -1.02234 0
      vertex 1.49059 -0.912125 -0.25
      vertex 1.3389 -1.02234 -0.25
    endloop
  endfacet
  facet normal -0.809026 -0.587772 0
    outer loop
      vertex 1.48584 -1.22459 -0.25
      vertex 1.3389 -1.02234 0
      vertex 1.3389 -1.02234 -0.25
    endloop
  endfacet
  facet normal -0.809026 -0.587772 0
    outer loop
      vertex 1.3389 -1.02234 0
      vertex 1.48584 -1.22459 -0.25
      vertex 1.48584 -1.22459 0
    endloop
  endfacet
  facet normal 0.587778 -0.809022 0
    outer loop
      vertex 1.48584 -1.22459 -0.25
      vertex 1.94092 -0.893967 0
      vertex 1.48584 -1.22459 0
    endloop
  endfacet
  facet normal 0.587778 -0.809022 0
    outer loop
      vertex 1.94092 -0.893967 0
      vertex 1.48584 -1.22459 -0.25
      vertex 1.94092 -0.893967 -0.25
    endloop
  endfacet
  facet normal 0.809026 0.587772 0
    outer loop
      vertex 1.94092 -0.893967 0
      vertex 1.79398 -0.691711 -0.25
      vertex 1.79398 -0.691711 0
    endloop
  endfacet
  facet normal 0.809026 0.587772 0
    outer loop
      vertex 1.79398 -0.691711 -0.25
      vertex 1.94092 -0.893967 0
      vertex 1.94092 -0.893967 -0.25
    endloop
  endfacet
  facet normal -0.58777 0.809028 0
    outer loop
      vertex 1.79398 -0.691711 -0.25
      vertex 1.64227 -0.801926 0
      vertex 1.79398 -0.691711 0
    endloop
  endfacet
  facet normal -0.58777 0.809028 0
    outer loop
      vertex 1.64227 -0.801926 0
      vertex 1.79398 -0.691711 -0.25
      vertex 1.64227 -0.801926 -0.25
    endloop
  endfacet
  facet normal 0.809039 0.587755 0
    outer loop
      vertex 1.64227 -0.801926 0
      vertex 1.53207 -0.650238 -0.25
      vertex 1.53207 -0.650238 0
    endloop
  endfacet
  facet normal 0.809039 0.587755 0
    outer loop
      vertex 1.53207 -0.650238 -0.25
      vertex 1.64227 -0.801926 0
      vertex 1.64227 -0.801926 -0.25
    endloop
  endfacet
  facet normal 0.587786 -0.809016 0
    outer loop
      vertex 1.53207 -0.650238 -0.25
      vertex 2.42705 0 0
      vertex 1.53207 -0.650238 0
    endloop
  endfacet
  facet normal 0.587786 -0.809016 0
    outer loop
      vertex 2.42705 0 0
      vertex 1.53207 -0.650238 -0.25
      vertex 2.42705 0 -0.25
    endloop
  endfacet
  facet normal 0.587786 0.809016 -0
    outer loop
      vertex 2.42705 0 -0.25
      vertex 1.53207 0.650238 0
      vertex 2.42705 0 0
    endloop
  endfacet
  facet normal 0.587786 0.809016 0
    outer loop
      vertex 1.53207 0.650238 0
      vertex 2.42705 0 -0.25
      vertex 1.53207 0.650238 -0.25
    endloop
  endfacet
  facet normal -0.811534 0.584305 0
    outer loop
      vertex 1.53207 0.650238 -0.25
      vertex 1.53207 0.650237 0
      vertex 1.53207 0.650238 0
    endloop
  endfacet
  facet normal -0.809028 0.58777 3.14106e-08
    outer loop
      vertex 1.42186 0.498535 -0.25
      vertex 1.53207 0.650237 0
      vertex 1.53207 0.650238 -0.25
    endloop
  endfacet
  facet normal -0.809028 0.58777 0
    outer loop
      vertex 1.53207 0.650237 0
      vertex 1.42186 0.498535 -0.25
      vertex 1.42186 0.498535 0
    endloop
  endfacet
  facet normal -0.587755 -0.809039 0
    outer loop
      vertex 1.42186 0.498535 -0.25
      vertex 1.57355 0.388336 0
      vertex 1.42186 0.498535 0
    endloop
  endfacet
  facet normal -0.587755 -0.809039 -0
    outer loop
      vertex 1.57355 0.388336 0
      vertex 1.42186 0.498535 -0.25
      vertex 1.57355 0.388336 -0.25
    endloop
  endfacet
  facet normal -0.809026 0.587772 0
    outer loop
      vertex 1.42661 0.186081 -0.25
      vertex 1.57355 0.388336 0
      vertex 1.57355 0.388336 -0.25
    endloop
  endfacet
  facet normal -0.809026 0.587772 0
    outer loop
      vertex 1.57355 0.388336 0
      vertex 1.42661 0.186081 -0.25
      vertex 1.42661 0.186081 0
    endloop
  endfacet
  facet normal 0.587778 0.809022 -0
    outer loop
      vertex 1.42661 0.186081 -0.25
      vertex 0.971527 0.516708 0
      vertex 1.42661 0.186081 0
    endloop
  endfacet
  facet normal 0.587778 0.809022 0
    outer loop
      vertex 0.971527 0.516708 0
      vertex 1.42661 0.186081 -0.25
      vertex 0.971527 0.516708 -0.25
    endloop
  endfacet
  facet normal 0.808997 -0.587812 0
    outer loop
      vertex 0.971527 0.516708 0
      vertex 1.11848 0.718964 -0.25
      vertex 1.11848 0.718964 0
    endloop
  endfacet
  facet normal 0.808997 -0.587812 0
    outer loop
      vertex 1.11848 0.718964 -0.25
      vertex 0.971527 0.516708 0
      vertex 0.971527 0.516708 -0.25
    endloop
  endfacet
  facet normal -0.587809 -0.809 0
    outer loop
      vertex 1.11848 0.718964 -0.25
      vertex 1.27017 0.608749 0
      vertex 1.11848 0.718964 0
    endloop
  endfacet
  facet normal -0.587809 -0.809 -0
    outer loop
      vertex 1.27017 0.608749 0
      vertex 1.11848 0.718964 -0.25
      vertex 1.27017 0.608749 -0.25
    endloop
  endfacet
  facet normal 0.811534 -0.584305 0
    outer loop
      vertex 1.38038 0.760446 0
      vertex 1.38039 0.760452 -0.25
      vertex 1.38039 0.760452 0
    endloop
  endfacet
  facet normal 0.809028 -0.58777 -1.25647e-07
    outer loop
      vertex 1.27017 0.608749 0
      vertex 1.38039 0.760452 -0.25
      vertex 1.38038 0.760446 0
    endloop
  endfacet
  facet normal 0.809028 -0.58777 0
    outer loop
      vertex 1.38039 0.760452 -0.25
      vertex 1.27017 0.608749 0
      vertex 1.27017 0.608749 -0.25
    endloop
  endfacet
  facet normal 0.587781 0.80902 -0
    outer loop
      vertex 1.38039 0.760452 -0.25
      vertex 0 1.76335 0
      vertex 1.38039 0.760452 0
    endloop
  endfacet
  facet normal 0.587781 0.80902 0
    outer loop
      vertex 0 1.76335 0
      vertex 1.38039 0.760452 -0.25
      vertex 0 1.76335 -0.25
    endloop
  endfacet
  facet normal -0.587786 0.809016 0
    outer loop
      vertex 0 1.76335 -0.25
      vertex -0.894974 1.11311 0
      vertex 0 1.76335 0
    endloop
  endfacet
  facet normal -0.587786 0.809016 0
    outer loop
      vertex -0.894974 1.11311 0
      vertex 0 1.76335 -0.25
      vertex -0.894974 1.11311 -0.25
    endloop
  endfacet
  facet normal -0.808992 -0.58782 0
    outer loop
      vertex -0.775299 0.94841 -0.25
      vertex -0.894974 1.11311 0
      vertex -0.894974 1.11311 -0.25
    endloop
  endfacet
  facet normal -0.808992 -0.58782 0
    outer loop
      vertex -0.894974 1.11311 0
      vertex -0.775299 0.94841 -0.25
      vertex -0.775299 0.94841 0
    endloop
  endfacet
  facet normal -0.156483 -0.987681 0
    outer loop
      vertex -0.775299 0.94841 -0.25
      vertex -0.535873 0.910477 0
      vertex -0.775299 0.94841 0
    endloop
  endfacet
  facet normal -0.156483 -0.987681 -0
    outer loop
      vertex -0.535873 0.910477 0
      vertex -0.775299 0.94841 -0.25
      vertex -0.535873 0.910477 -0.25
    endloop
  endfacet
  facet normal -0.987684 0.156462 0
    outer loop
      vertex -0.594543 0.540115 -0.25
      vertex -0.535873 0.910477 0
      vertex -0.535873 0.910477 -0.25
    endloop
  endfacet
  facet normal -0.987684 0.156462 0
    outer loop
      vertex -0.535873 0.910477 0
      vertex -0.594543 0.540115 -0.25
      vertex -0.594543 0.540115 0
    endloop
  endfacet
  facet normal 0.156422 0.98769 -0
    outer loop
      vertex -0.594543 0.540115 -0.25
      vertex -0.964905 0.59877 0
      vertex -0.594543 0.540115 0
    endloop
  endfacet
  facet normal 0.156422 0.98769 0
    outer loop
      vertex -0.964905 0.59877 0
      vertex -0.594543 0.540115 -0.25
      vertex -0.964905 0.59877 -0.25
    endloop
  endfacet
  facet normal 0.9877 -0.15636 0
    outer loop
      vertex -0.964905 0.59877 0
      vertex -0.927002 0.838196 -0.25
      vertex -0.927002 0.838196 0
    endloop
  endfacet
  facet normal 0.9877 -0.15636 0
    outer loop
      vertex -0.927002 0.838196 -0.25
      vertex -0.964905 0.59877 0
      vertex -0.964905 0.59877 -0.25
    endloop
  endfacet
  facet normal 0.809028 0.587771 0
    outer loop
      vertex -0.927002 0.838196 0
      vertex -1.04666 1.0029 -0.25
      vertex -1.04666 1.0029 0
    endloop
  endfacet
  facet normal 0.809028 0.587771 0
    outer loop
      vertex -1.04666 1.0029 -0.25
      vertex -0.927002 0.838196 0
      vertex -0.927002 0.838196 -0.25
    endloop
  endfacet
  facet normal -0.587781 0.80902 0
    outer loop
      vertex -1.04666 1.0029 -0.25
      vertex -2.42705 0 0
      vertex -1.04666 1.0029 0
    endloop
  endfacet
  facet normal -0.587781 0.80902 0
    outer loop
      vertex -2.42705 0 0
      vertex -1.04666 1.0029 -0.25
      vertex -2.42705 0 -0.25
    endloop
  endfacet
  facet normal -0.587781 -0.80902 0
    outer loop
      vertex -2.42705 0 -0.25
      vertex -1.04666 -1.0029 0
      vertex -2.42705 0 0
    endloop
  endfacet
  facet normal -0.587781 -0.80902 -0
    outer loop
      vertex -1.04666 -1.0029 0
      vertex -2.42705 0 -0.25
      vertex -1.04666 -1.0029 -0.25
    endloop
  endfacet
  facet normal -0.811534 0.584305 0
    outer loop
      vertex -1.04666 -1.0029 -0.25
      vertex -1.04667 -1.00291 0
      vertex -1.04666 -1.0029 0
    endloop
  endfacet
  facet normal -0.809028 0.587771 1.25661e-07
    outer loop
      vertex -1.16632 -1.1676 -0.25
      vertex -1.04667 -1.00291 0
      vertex -1.04666 -1.0029 -0.25
    endloop
  endfacet
  facet normal -0.809028 0.587771 0
    outer loop
      vertex -1.04667 -1.00291 0
      vertex -1.16632 -1.1676 -0.25
      vertex -1.16632 -1.1676 0
    endloop
  endfacet
  facet normal -0.156483 0.987681 0
    outer loop
      vertex -1.16632 -1.1676 -0.25
      vertex -1.40575 -1.20554 0
      vertex -1.16632 -1.1676 0
    endloop
  endfacet
  facet normal -0.156483 0.987681 0
    outer loop
      vertex -1.40575 -1.20554 0
      vertex -1.16632 -1.1676 -0.25
      vertex -1.40575 -1.20554 -0.25
    endloop
  endfacet
  facet normal -0.98769 -0.156422 0
    outer loop
      vertex -1.34709 -1.5759 -0.25
      vertex -1.40575 -1.20554 0
      vertex -1.40575 -1.20554 -0.25
    endloop
  endfacet
  facet normal -0.98769 -0.156422 0
    outer loop
      vertex -1.40575 -1.20554 0
      vertex -1.34709 -1.5759 -0.25
      vertex -1.34709 -1.5759 0
    endloop
  endfacet
  facet normal 0.156416 -0.987691 0
    outer loop
      vertex -1.34709 -1.5759 -0.25
      vertex -0.976715 -1.51724 0
      vertex -1.34709 -1.5759 0
    endloop
  endfacet
  facet normal 0.156416 -0.987691 0
    outer loop
      vertex -0.976715 -1.51724 0
      vertex -1.34709 -1.5759 -0.25
      vertex -0.976715 -1.51724 -0.25
    endloop
  endfacet
  facet normal 0.98769 0.156422 0
    outer loop
      vertex -0.976715 -1.51724 0
      vertex -1.01463 -1.27782 -0.25
      vertex -1.01463 -1.27782 0
    endloop
  endfacet
  facet normal 0.98769 0.156422 0
    outer loop
      vertex -1.01463 -1.27782 -0.25
      vertex -0.976715 -1.51724 0
      vertex -0.976715 -1.51724 -0.25
    endloop
  endfacet
  facet normal 0.8 -0.6 0
    outer loop
      vertex -0.894975 -1.11311 0
      vertex -0.894974 -1.11311 -0.25
      vertex -0.894974 -1.11311 0
    endloop
  endfacet
  facet normal 0.809028 -0.58777 1.08721e-07
    outer loop
      vertex -1.01463 -1.27782 0
      vertex -0.894974 -1.11311 -0.25
      vertex -0.894975 -1.11311 0
    endloop
  endfacet
  facet normal 0.809028 -0.587771 0
    outer loop
      vertex -0.894974 -1.11311 -0.25
      vertex -1.01463 -1.27782 0
      vertex -1.01463 -1.27782 -0.25
    endloop
  endfacet
  facet normal -0.587786 -0.809016 0
    outer loop
      vertex -0.894974 -1.11311 -0.25
      vertex 0 -1.76335 0
      vertex -0.894974 -1.11311 0
    endloop
  endfacet
  facet normal -0.587786 -0.809016 -0
    outer loop
      vertex 0 -1.76335 0
      vertex -0.894974 -1.11311 -0.25
      vertex 0 -1.76335 -0.25
    endloop
  endfacet
  facet normal 0.587781 -0.80902 0
    outer loop
      vertex 0 -1.76335 -0.25
      vertex 1.38039 -0.760452 0
      vertex 0 -1.76335 0
    endloop
  endfacet
  facet normal 0.587781 -0.80902 0
    outer loop
      vertex 1.38039 -0.760452 0
      vertex 0 -1.76335 -0.25
      vertex 1.38039 -0.760452 -0.25
    endloop
  endfacet
  facet normal -0.587785 0.809017 0
    outer loop
      vertex 0 1.76335 0
      vertex -2.42705 0 0.25
      vertex 0 1.76335 0.25
    endloop
  endfacet
  facet normal -0.587785 0.809017 0
    outer loop
      vertex -2.42705 0 0.25
      vertex 0 1.76335 0
      vertex -2.42705 0 0
    endloop
  endfacet
  facet normal 0.587785 -0.809017 0
    outer loop
      vertex 0 -1.76335 0
      vertex 2.42705 0 0.25
      vertex 0 -1.76335 0.25
    endloop
  endfacet
  facet normal 0.587785 -0.809017 0
    outer loop
      vertex 2.42705 0 0.25
      vertex 0 -1.76335 0
      vertex 2.42705 0 0
    endloop
  endfacet
  facet normal -0.587785 -0.809017 0
    outer loop
      vertex -1.04667 -1.00291 0
      vertex -2.42705 0 0.25
      vertex -2.42705 0 0
    endloop
  endfacet
  facet normal -0.587785 -0.809017 -1.01354e-07
    outer loop
      vertex -2.42705 0 0.25
      vertex -1.04667 -1.00291 0
      vertex 0 -1.76335 0.25
    endloop
  endfacet
  facet normal -0.587785 -0.809017 -5.79482e-07
    outer loop
      vertex -0.894975 -1.11311 0
      vertex 0 -1.76335 0.25
      vertex -1.04667 -1.00291 0
    endloop
  endfacet
  facet normal -0.587785 -0.809017 -0
    outer loop
      vertex 0 -1.76335 0.25
      vertex -0.894975 -1.11311 0
      vertex 0 -1.76335 0
    endloop
  endfacet
  facet normal 0 0 1
    outer loop
      vertex 0 1.76335 0.25
      vertex 0 -1.76335 0.25
      vertex 2.42705 0 0.25
    endloop
  endfacet
  facet normal 0 -0 1
    outer loop
      vertex 0 -1.76335 0.25
      vertex 0 1.76335 0.25
      vertex -2.42705 0 0.25
    endloop
  endfacet
  facet normal 0.587785 0.809017 0
    outer loop
      vertex 1.53207 0.650237 0
      vertex 2.42705 0 0.25
      vertex 2.42705 0 0
    endloop
  endfacet
  facet normal 0.587785 0.809017 -7.51422e-07
    outer loop
      vertex 1.38038 0.760446 0
      vertex 2.42705 0 0.25
      vertex 1.53207 0.650237 0
    endloop
  endfacet
  facet normal 0.587785 0.809017 1.01354e-07
    outer loop
      vertex 2.42705 0 0.25
      vertex 1.38038 0.760446 0
      vertex 0 1.76335 0.25
    endloop
  endfacet
  facet normal 0.587785 0.809017 0
    outer loop
      vertex 0 1.76335 0.25
      vertex 1.38038 0.760446 0
      vertex 0 1.76335 0
    endloop
  endfacet
endsolid OpenSCAD_Model
